<svg version="1.2" xmlns="http://www.w3.org/2000/svg" viewBox="0 0 337 198" width="337" height="198">
	<title>5K LOGO-svg</title>
	<style>
		.s0 { fill: #272727 } 
	</style>
	<path id="Layer" class="s0" d="m38.1 191.1q-0.2 0.4-0.1 0.9 0.1 0.4 0.5 0.7 0.4 0.3 0.9 0.3 0.4 0 0.8-0.3c19.8-15.9 41-29.8 63.5-41.5 22.4-11.8 46-21.4 70.3-28.6 24.3-7.2 49.2-12.1 74.5-14.5 25.2-2.4 50.6-2.3 75.9 0.2 0.3 0 0.6-0.1 0.9-0.3 0.3-0.1 0.4-0.4 0.5-0.8 0.1-0.3 0-0.6-0.1-0.9-0.2-0.3-0.5-0.5-0.8-0.6-18.9-6.4-38.6-10.6-58.5-12.4-19.9-1.8-39.9-1.2-59.7 1.6-19.8 2.9-39.2 8.1-57.8 15.5-18.6 7.4-36.2 16.9-52.6 28.5l0.5-0.3c0.8-0.6 20.9-15.5 34.6-24.5 1.8-1.2 4.6-3 8.2-5.2q0.1-0.1 0.3-0.2 0.1-0.2 0.2-0.3 0.1-0.2 0.1-0.4 0-0.2 0-0.4c-0.5-5.1-4.1-30.6-28-43.1-21.5-11.1-42.2-2.9-48.6 0.2q-0.3 0.2-0.7 0.2-0.3-0.1-0.6-0.3-0.3-0.1-0.5-0.4-0.1-0.4-0.1-0.7v-24.4q0-0.3 0.1-0.5 0.1-0.3 0.2-0.5 0.2-0.2 0.5-0.3 0.2-0.1 0.5-0.1h63.1q0.3 0 0.5-0.1 0.3-0.1 0.5-0.3 0.1-0.2 0.2-0.4 0.1-0.3 0.1-0.5v-29q0-0.3-0.1-0.6-0.1-0.2-0.2-0.4-0.2-0.2-0.5-0.3-0.2-0.1-0.5-0.1h-112.5q-0.2 0-0.5 0.1-0.2 0.1-0.4 0.3-0.2 0.2-0.3 0.4-0.1 0.3-0.1 0.6v88.7q0 0.2 0.1 0.5 0.1 0.2 0.3 0.4 0.2 0.2 0.4 0.3 0.3 0.1 0.5 0.1h32.2q0.2 0 0.3 0 0.1 0 0.3-0.1 0.1-0.1 0.2-0.1 0.1-0.1 0.2-0.2 2.2-2.4 4.9-4.2 2.7-1.7 5.8-2.6 3.1-0.9 6.4-0.9 3.2 0 6.3 0.8c10.9 3.2 16 14 16.4 22.6q0.1 3.1-0.5 6.1-0.6 3.1-1.9 5.9-1.3 2.8-3.2 5.3-1.9 2.5-4.4 4.4c-11.3 8.7-31.5 6.4-48.2-7.8q-0.2-0.2-0.4-0.3-0.2 0-0.4-0.1-0.3 0-0.5 0.1-0.2 0.1-0.4 0.2l-26.2 20.7q-0.2 0.1-0.3 0.4-0.2 0.2-0.2 0.4 0 0.3 0 0.6 0.1 0.2 0.3 0.4c2.8 3.7 6 7.1 9.6 10.1 3.6 3 7.5 5.5 11.7 7.6 4.1 2.2 8.5 3.8 13 4.9 4.5 1.1 9.2 1.7 13.8 1.8q0.4 0 0.8 0.3 0.3 0.2 0.4 0.6 0.2 0.4 0.1 0.8-0.1 0.4-0.4 0.7-1.7 1.6-3.3 3.4-1.6 1.8-3 3.7-1.4 1.9-2.6 4-1.2 2-2.3 4.2z"/>
	<path id="Layer" class="s0" d="m153.2 6h34q0.1 0 0.2 0.1 0.1 0 0.2 0.1 0.1 0.1 0.1 0.2 0.1 0.1 0.1 0.2v37.9q0 0.2 0.1 0.3 0.1 0.2 0.3 0.2 0.1 0.1 0.3 0 0.2 0 0.3-0.1l26.9-38.6q0-0.1 0.1-0.1 0-0.1 0.1-0.1 0 0 0.1-0.1 0.1 0 0.1 0h31.2q0.1 0 0.3 0.1 0.1 0.1 0.2 0.2 0.1 0.2 0.1 0.3-0.1 0.2-0.1 0.3l-26.1 39.2q0 0 0 0.1-0.1 0.1-0.1 0.2 0 0.1 0.1 0.1 0 0.1 0 0.2l17.4 27.3q0 0.1 0.1 0.2 0 0.2-0.1 0.3 0 0.1-0.2 0.2-0.1 0.1-0.2 0.2l-33.6 5.8q-0.1 0-0.2 0-0.1 0-0.2 0-0.1-0.1-0.1-0.1-0.1-0.1-0.1-0.2l-15.8-27q-0.1-0.2-0.3-0.3-0.2-0.1-0.4 0-0.2 0-0.3 0.2-0.1 0.2-0.1 0.4v32.3q0 0.1 0 0.2-0.1 0.1-0.1 0.1-0.1 0.1-0.1 0.2-0.1 0-0.2 0.1l-34 14.5"/>
</svg>